<?xml version="1.0" encoding="UTF-8" standalone="no"?>
<svg xmlns="http://www.w3.org/2000/svg" width="256" height="256" viewBox="0 0 256 256">
  <circle cx="128" cy="128" r="120" fill="#25D366"/>
  <path d="M128 48c-44.183 0-80 35.817-80 80s35.817 80 80 80 80-35.817 80-80-35.817-80-80-80zm40 120h-80c-6.627 0-12-5.373-12-12v-56c0-6.627 5.373-12 12-12h80c6.627 0 12 5.373 12 12v56c0 6.627-5.373 12-12 12z" fill="white"/>
  <path d="M148 108h-40c-3.314 0-6 2.686-6 6v28c0 3.314 2.686 6 6 6h40c3.314 0 6-2.686 6-6v-28c0-3.314-2.686-6-6-6z" fill="#25D366"/>
  <circle cx="128" cy="128" r="16" fill="white"/>
</svg> 